<svg xmlns="http://www.w3.org/2000/svg" xmlns:xlink="http://www.w3.org/1999/xlink" width="500" zoomAndPan="magnify" viewBox="0 0 375 374.999991" height="500" preserveAspectRatio="xMidYMid meet" version="1.2"><defs><clipPath id="4ccb937583"><path d="M 44.644531 208.742188 L 77 208.742188 L 77 258.402344 L 44.644531 258.402344 Z M 44.644531 208.742188 "/></clipPath><clipPath id="f8bf134a0a"><path d="M 74.007812 237.675781 C 73.058594 236.660156 71.914062 235.710938 70.554688 234.839844 C 69.195312 233.96875 67.648438 233.117188 65.902344 232.296875 L 60.449219 229.679688 C 59.234375 229.097656 58.121094 228.527344 57.101562 227.972656 C 56.085938 227.421875 55.199219 226.789062 54.449219 226.085938 C 53.695312 225.378906 53.105469 224.566406 52.671875 223.648438 C 52.238281 222.730469 52.019531 221.640625 52.019531 220.378906 C 52.019531 218.921875 52.316406 217.679688 52.890625 216.640625 C 53.46875 215.601562 54.234375 214.75 55.183594 214.097656 C 56.132812 213.445312 57.203125 212.976562 58.414062 212.679688 C 59.628906 212.382812 60.835938 212.246094 62.050781 212.246094 C 64.378906 212.246094 66.535156 212.769531 68.519531 213.808594 C 70.507812 214.847656 72.199219 216.410156 73.613281 218.5 L 76.375 216.390625 C 74.871094 214.113281 72.898438 212.269531 70.449219 210.867188 C 67.996094 209.460938 65.175781 208.75 61.972656 208.75 C 60.085938 208.75 58.300781 209.015625 56.632812 209.546875 C 54.964844 210.078125 53.492188 210.851562 52.230469 211.875 C 50.972656 212.898438 49.964844 214.128906 49.210938 215.585938 C 48.460938 217.042969 48.089844 218.710938 48.089844 220.601562 C 48.089844 222.34375 48.394531 223.847656 49 225.105469 C 49.605469 226.367188 50.390625 227.480469 51.359375 228.453125 C 52.332031 229.421875 53.453125 230.273438 54.742188 230.992188 C 56.035156 231.714844 57.324219 232.398438 58.628906 233.027344 L 64.152344 235.644531 C 65.554688 236.328125 66.804688 236.988281 67.890625 237.648438 C 68.976562 238.308594 69.902344 238.988281 70.652344 239.71875 C 71.402344 240.445312 71.972656 241.28125 72.359375 242.222656 C 72.746094 243.164062 72.9375 244.269531 72.9375 245.53125 C 72.9375 246.988281 72.65625 248.269531 72.101562 249.382812 C 71.546875 250.5 70.78125 251.449219 69.8125 252.222656 C 68.839844 252.996094 67.695312 253.59375 66.359375 254.003906 C 65.023438 254.414062 63.582031 254.625 62.035156 254.625 C 58.742188 254.625 55.902344 253.792969 53.53125 252.113281 C 51.15625 250.4375 49.191406 248.375 47.640625 245.902344 L 44.804688 248.011719 C 46.648438 251.113281 49.03125 253.585938 51.964844 255.421875 C 54.902344 257.257812 58.257812 258.183594 62.035156 258.183594 C 64.121094 258.183594 66.070312 257.882812 67.882812 257.273438 C 69.695312 256.667969 71.289062 255.808594 72.648438 254.695312 C 74.007812 253.578125 75.0625 252.242188 75.8125 250.695312 C 76.5625 249.148438 76.941406 247.402344 76.941406 245.460938 C 76.941406 243.816406 76.683594 242.359375 76.175781 241.097656 C 75.667969 239.839844 74.9375 238.703125 74 237.683594 "/></clipPath><clipPath id="bd0224b961"><path d="M 7.683594 209.476562 L 37.773438 209.476562 L 37.773438 212.890625 L 7.683594 212.890625 Z M 7.683594 212.890625 L 11.46875 212.890625 L 11.46875 221.835938 L 7.683594 221.835938 Z M 7.683594 221.835938 L 11.429688 221.835938 L 11.429688 244.992188 L 7.683594 244.992188 Z M 7.683594 244.992188 L 11.460938 244.992188 L 11.460938 254.035156 L 7.683594 254.035156 Z M 7.683594 254.035156 L 38.644531 254.035156 L 38.644531 257.449219 L 7.683594 257.449219 Z M 7.683594 254.035156 "/></clipPath><clipPath id="d060c023b5"><path d="M 18.757812 229.824219 L 31.882812 229.824219 L 31.882812 233.238281 L 18.757812 233.238281 Z M 18.757812 229.824219 "/></clipPath><clipPath id="f35f20222b"><path d="M 140.324219 124.53125 L 234.488281 124.53125 L 234.488281 157.378906 L 140.324219 157.378906 Z M 140.324219 124.53125 "/></clipPath><clipPath id="14dfae147e"><path d="M 205.515625 156.035156 C 217.917969 159.996094 235.230469 152.855469 234.414062 141.164062 C 231.558594 146.292969 219.710938 144.941406 211.054688 141.921875 C 202.988281 139.101562 186.859375 130.246094 176.691406 126.71875 C 167.058594 123.375 142.332031 121.089844 140.558594 146.460938 C 143.644531 145.429688 147.628906 144.546875 151.503906 144.351562 C 170.222656 143.386719 187.808594 150.390625 205.515625 156.042969 "/></clipPath><clipPath id="c13c6637ff"><path d="M 159.484375 116.589844 L 194.796875 116.589844 L 194.796875 128.910156 L 159.484375 128.910156 Z M 159.484375 116.589844 "/></clipPath><clipPath id="cc9a6905b7"><path d="M 176.125 122.851562 C 179.300781 123.957031 183.074219 125.582031 186.996094 127.378906 C 188.785156 128.199219 190.726562 128.667969 192.691406 128.660156 C 193.332031 128.660156 193.96875 128.632812 194.605469 128.578125 C 188.246094 127.878906 184.355469 121.265625 175.628906 117.996094 C 167.476562 114.9375 162.292969 118.5625 159.523438 121.074219 C 165.851562 120.316406 172.222656 121.492188 176.125 122.851562 "/></clipPath><clipPath id="2e1984f6ef"><path d="M 145.796875 148.890625 L 222.71875 148.890625 L 222.71875 169.96875 L 145.796875 169.96875 Z M 145.796875 148.890625 "/></clipPath><clipPath id="fd4de75d98"><path d="M 186 168.058594 C 197.769531 171.722656 210.257812 169.371094 218.648438 161.960938 C 220.246094 160.546875 221.589844 158.816406 222.570312 156.914062 C 219.746094 160.617188 209.125 160.402344 202.253906 158.210938 C 188.664062 153.871094 173.042969 148.8125 162.203125 148.957031 C 143.84375 149.191406 145.996094 165.988281 145.996094 165.988281 C 145.996094 165.988281 151.632812 157.347656 186 168.058594 "/></clipPath><clipPath id="090dcae814"><path d="M 167.148438 166.410156 L 206.839844 166.410156 L 206.839844 179.550781 L 167.148438 179.550781 Z M 167.148438 166.410156 "/></clipPath><clipPath id="23de17e87b"><path d="M 185.070312 171.753906 C 177.945312 168.992188 172.34375 167.421875 167.96875 166.601562 C 167.703125 166.625 167.429688 166.648438 167.164062 166.679688 C 173.484375 169.152344 178.878906 173.507812 184.925781 176.160156 C 186.78125 176.980469 188.613281 177.808594 190.265625 178.375 C 192.519531 179.152344 194.421875 179.417969 195.949219 179.28125 C 200.628906 178.871094 203.542969 175.015625 206.734375 171.519531 C 200.234375 174.402344 192.375 174.574219 185.074219 171.746094 "/></clipPath><clipPath id="b7092c46c6"><path d="M 85.734375 208.742188 L 129.832031 208.742188 L 129.832031 258.179688 L 85.734375 258.179688 Z M 85.734375 208.742188 "/></clipPath><clipPath id="085f6dfd6b"><path d="M 95.589844 218.347656 C 97.457031 216.457031 99.648438 214.960938 102.167969 213.878906 C 104.6875 212.792969 107.425781 212.238281 110.382812 212.238281 C 113.875 212.238281 117.023438 213.003906 119.832031 214.53125 C 122.636719 216.054688 124.988281 218.125 126.878906 220.742188 L 129.714844 218.488281 C 127.582031 215.53125 124.84375 213.171875 121.507812 211.402344 C 118.167969 209.636719 114.429688 208.75 110.308594 208.75 C 106.871094 208.75 103.65625 209.378906 100.679688 210.636719 C 97.707031 211.898438 95.105469 213.628906 92.90625 215.835938 C 90.703125 218.042969 88.953125 220.660156 87.671875 223.6875 C 86.386719 226.714844 85.742188 229.976562 85.742188 233.457031 C 85.742188 236.941406 86.371094 240.195312 87.632812 243.199219 C 88.890625 246.203125 90.636719 248.820312 92.867188 251.050781 C 95.097656 253.28125 97.699219 255.027344 100.679688 256.289062 C 103.664062 257.546875 106.871094 258.175781 110.308594 258.175781 C 114.429688 258.175781 118.167969 257.296875 121.539062 255.519531 C 124.90625 253.746094 127.628906 251.394531 129.714844 248.433594 L 126.878906 246.179688 C 124.988281 248.800781 122.636719 250.855469 119.832031 252.355469 C 117.023438 253.859375 113.867188 254.609375 110.382812 254.609375 C 107.425781 254.609375 104.6875 254.0625 102.175781 252.980469 C 99.664062 251.894531 97.464844 250.398438 95.597656 248.511719 C 93.730469 246.621094 92.273438 244.382812 91.234375 241.789062 C 90.195312 239.195312 89.671875 236.402344 89.671875 233.390625 C 89.671875 230.378906 90.1875 227.601562 91.234375 225.03125 C 92.28125 222.457031 93.730469 220.234375 95.597656 218.347656 "/></clipPath><clipPath id="59a2fed6f4"><path d="M 137 208.742188 L 186.394531 208.742188 L 186.394531 258.402344 L 137 258.402344 Z M 137 208.742188 "/></clipPath><clipPath id="cecbf122e6"><path d="M 180.773438 241.78125 C 179.734375 244.375 178.292969 246.613281 176.449219 248.503906 C 174.605469 250.390625 172.429688 251.886719 169.910156 252.972656 C 167.390625 254.058594 164.675781 254.601562 161.769531 254.601562 C 158.8125 254.601562 156.078125 254.058594 153.5625 252.972656 C 151.042969 251.886719 148.855469 250.390625 147.019531 248.503906 C 145.183594 246.613281 143.734375 244.375 142.695312 241.78125 C 141.65625 239.1875 141.125 236.394531 141.125 233.390625 C 141.125 230.386719 141.640625 227.601562 142.6875 225.03125 C 143.734375 222.457031 145.167969 220.234375 147.011719 218.347656 C 148.855469 216.457031 151.035156 214.960938 153.554688 213.878906 C 156.070312 212.792969 158.8125 212.246094 161.761719 212.246094 C 164.667969 212.246094 167.382812 212.792969 169.902344 213.878906 C 172.421875 214.960938 174.605469 216.457031 176.441406 218.347656 C 178.277344 220.234375 179.726562 222.480469 180.765625 225.066406 C 181.804688 227.65625 182.328125 230.429688 182.328125 233.390625 C 182.328125 236.394531 181.804688 239.195312 180.765625 241.789062 M 179.058594 215.84375 C 176.828125 213.632812 174.210938 211.90625 171.207031 210.644531 C 168.203125 209.386719 165.015625 208.75 161.625 208.75 C 158.234375 208.75 155.046875 209.378906 152.066406 210.636719 C 149.085938 211.898438 146.488281 213.628906 144.289062 215.835938 C 142.089844 218.042969 140.335938 220.660156 139.054688 223.6875 C 137.773438 226.714844 137.128906 229.976562 137.128906 233.464844 C 137.128906 236.957031 137.757812 240.203125 139.015625 243.207031 C 140.277344 246.210938 142.019531 248.8125 144.25 251.023438 C 146.480469 253.230469 149.070312 254.976562 152.027344 256.257812 C 154.988281 257.539062 158.179688 258.183594 161.625 258.183594 C 165.015625 258.183594 168.210938 257.554688 171.222656 256.292969 C 174.234375 255.035156 176.84375 253.289062 179.074219 251.058594 C 181.304688 248.828125 183.058594 246.210938 184.339844 243.207031 C 185.621094 240.203125 186.265625 236.957031 186.265625 233.464844 C 186.265625 229.976562 185.621094 226.722656 184.339844 223.6875 C 183.058594 220.652344 181.296875 218.042969 179.074219 215.835938 "/></clipPath><clipPath id="3db30ff61d"><path d="M 191.519531 209.410156 L 234.277344 209.410156 L 234.277344 258.179688 L 191.519531 258.179688 Z M 191.519531 209.410156 "/></clipPath><clipPath id="90e36c98c4"><path d="M 230.097656 209.476562 L 212.875 250.90625 L 195.636719 209.476562 L 191.570312 209.476562 L 212.136719 258.175781 L 213.664062 258.175781 L 234.238281 209.476562 Z M 230.097656 209.476562 "/></clipPath><clipPath id="6f0df01b15"><path d="M 275.738281 209.476562 L 314.628906 209.476562 L 314.628906 212.890625 L 275.738281 212.890625 Z M 293.253906 212.890625 L 297.109375 212.890625 L 297.109375 257.449219 L 293.253906 257.449219 Z M 293.253906 212.890625 "/></clipPath><clipPath id="51712771e9"><path d="M 318.011719 208.742188 L 367.453125 208.742188 L 367.453125 258.402344 L 318.011719 258.402344 Z M 318.011719 208.742188 "/></clipPath><clipPath id="9a48c3780d"><path d="M 361.832031 241.78125 C 360.792969 244.375 359.351562 246.613281 357.507812 248.503906 C 355.664062 250.390625 353.484375 251.886719 350.96875 252.972656 C 348.449219 254.058594 345.734375 254.601562 342.828125 254.601562 C 339.867188 254.601562 337.128906 254.058594 334.609375 252.972656 C 332.089844 251.886719 329.90625 250.390625 328.070312 248.503906 C 326.234375 246.613281 324.785156 244.375 323.746094 241.78125 C 322.707031 239.1875 322.183594 236.394531 322.183594 233.382812 C 322.183594 230.371094 322.707031 227.59375 323.746094 225.023438 C 324.785156 222.449219 326.226562 220.226562 328.070312 218.339844 C 329.914062 216.449219 332.089844 214.953125 334.609375 213.871094 C 337.128906 212.785156 339.867188 212.238281 342.828125 212.238281 C 345.734375 212.238281 348.449219 212.785156 350.96875 213.871094 C 353.484375 214.953125 355.671875 216.449219 357.507812 218.339844 C 359.34375 220.226562 360.792969 222.472656 361.832031 225.058594 C 362.871094 227.648438 363.394531 230.425781 363.394531 233.382812 C 363.394531 236.386719 362.871094 239.1875 361.832031 241.78125 M 365.398438 223.679688 C 364.117188 220.652344 362.355469 218.035156 360.125 215.828125 C 357.894531 213.621094 355.277344 211.890625 352.273438 210.628906 C 349.269531 209.371094 346.066406 208.75 342.675781 208.75 C 339.285156 208.75 336.097656 209.378906 333.117188 210.636719 C 330.132812 211.898438 327.539062 213.628906 325.339844 215.835938 C 323.140625 218.042969 321.386719 220.660156 320.105469 223.6875 C 318.824219 226.714844 318.175781 229.976562 318.175781 233.464844 C 318.175781 236.957031 318.808594 240.203125 320.066406 243.207031 C 321.328125 246.210938 323.070312 248.8125 325.300781 251.023438 C 327.53125 253.230469 330.121094 254.976562 333.078125 256.257812 C 336.035156 257.539062 339.230469 258.183594 342.675781 258.183594 C 346.066406 258.183594 349.261719 257.554688 352.273438 256.292969 C 355.285156 255.035156 357.894531 253.289062 360.125 251.058594 C 362.355469 248.828125 364.109375 246.210938 365.398438 243.207031 C 366.6875 240.203125 367.324219 236.957031 367.324219 233.464844 C 367.324219 229.976562 366.679688 226.722656 365.398438 223.6875 "/></clipPath><clipPath id="dbb20754fa"><path d="M 234 208.742188 L 276.8125 208.742188 L 276.8125 257.511719 L 234 257.511719 Z M 234 208.742188 "/></clipPath><clipPath id="80270d8bcf"><path d="M 254.585938 208.75 L 234.019531 257.449219 L 238.015625 257.449219 L 242.667969 246.210938 L 242.644531 246.179688 L 244.191406 242.617188 L 255.3125 215.578125 L 266.4375 242.617188 L 267.894531 246.03125 L 272.6875 257.441406 L 276.6875 257.441406 L 256.109375 208.75 Z M 254.585938 208.75 "/></clipPath></defs><g id="7b2928beae"><g clip-rule="nonzero" clip-path="url(#4ccb937583)"><g clip-rule="nonzero" clip-path="url(#f8bf134a0a)"><path style=" stroke:none;fill-rule:nonzero;fill:#ffffff;fill-opacity:1;" d="M 3.890625 204.957031 L 80.722656 204.957031 L 80.722656 261.96875 L 3.890625 261.96875 Z M 3.890625 204.957031 "/></g></g><g clip-rule="nonzero" clip-path="url(#bd0224b961)"><path style=" stroke:none;fill-rule:nonzero;fill:#ffffff;fill-opacity:1;" d="M 3.890625 204.957031 L 80.722656 204.957031 L 80.722656 261.96875 L 3.890625 261.96875 Z M 3.890625 204.957031 "/></g><g clip-rule="nonzero" clip-path="url(#d060c023b5)"><path style=" stroke:none;fill-rule:nonzero;fill:#ffffff;fill-opacity:1;" d="M 3.890625 204.957031 L 80.722656 204.957031 L 80.722656 261.96875 L 3.890625 261.96875 Z M 3.890625 204.957031 "/></g><g clip-rule="nonzero" clip-path="url(#f35f20222b)"><g clip-rule="nonzero" clip-path="url(#14dfae147e)"><path style=" stroke:none;fill-rule:nonzero;fill:#ffffff;fill-opacity:1;" d="M 136.765625 113.03125 L 238.320312 113.03125 L 238.320312 183.109375 L 136.765625 183.109375 Z M 136.765625 113.03125 "/></g></g><g clip-rule="nonzero" clip-path="url(#c13c6637ff)"><g clip-rule="nonzero" clip-path="url(#cc9a6905b7)"><path style=" stroke:none;fill-rule:nonzero;fill:#ffffff;fill-opacity:1;" d="M 136.765625 113.03125 L 238.320312 113.03125 L 238.320312 183.109375 L 136.765625 183.109375 Z M 136.765625 113.03125 "/></g></g><g clip-rule="nonzero" clip-path="url(#2e1984f6ef)"><g clip-rule="nonzero" clip-path="url(#fd4de75d98)"><path style=" stroke:none;fill-rule:nonzero;fill:#ffffff;fill-opacity:1;" d="M 136.765625 113.03125 L 238.320312 113.03125 L 238.320312 183.109375 L 136.765625 183.109375 Z M 136.765625 113.03125 "/></g></g><g clip-rule="nonzero" clip-path="url(#090dcae814)"><g clip-rule="nonzero" clip-path="url(#23de17e87b)"><path style=" stroke:none;fill-rule:nonzero;fill:#ffffff;fill-opacity:1;" d="M 136.765625 113.03125 L 238.320312 113.03125 L 238.320312 183.109375 L 136.765625 183.109375 Z M 136.765625 113.03125 "/></g></g><g clip-rule="nonzero" clip-path="url(#b7092c46c6)"><g clip-rule="nonzero" clip-path="url(#085f6dfd6b)"><path style=" stroke:none;fill-rule:nonzero;fill:#ffffff;fill-opacity:1;" d="M 81.949219 204.957031 L 371.015625 204.957031 L 371.015625 261.964844 L 81.949219 261.964844 Z M 81.949219 204.957031 "/></g></g><g clip-rule="nonzero" clip-path="url(#59a2fed6f4)"><g clip-rule="nonzero" clip-path="url(#cecbf122e6)"><path style=" stroke:none;fill-rule:nonzero;fill:#ffffff;fill-opacity:1;" d="M 81.949219 204.957031 L 371.015625 204.957031 L 371.015625 261.964844 L 81.949219 261.964844 Z M 81.949219 204.957031 "/></g></g><g clip-rule="nonzero" clip-path="url(#3db30ff61d)"><g clip-rule="nonzero" clip-path="url(#90e36c98c4)"><path style=" stroke:none;fill-rule:nonzero;fill:#ffffff;fill-opacity:1;" d="M 81.949219 204.957031 L 371.015625 204.957031 L 371.015625 261.964844 L 81.949219 261.964844 Z M 81.949219 204.957031 "/></g></g><g clip-rule="nonzero" clip-path="url(#6f0df01b15)"><path style=" stroke:none;fill-rule:nonzero;fill:#ffffff;fill-opacity:1;" d="M 81.949219 204.957031 L 371.015625 204.957031 L 371.015625 261.964844 L 81.949219 261.964844 Z M 81.949219 204.957031 "/></g><g clip-rule="nonzero" clip-path="url(#51712771e9)"><g clip-rule="nonzero" clip-path="url(#9a48c3780d)"><path style=" stroke:none;fill-rule:nonzero;fill:#ffffff;fill-opacity:1;" d="M 81.949219 204.957031 L 371.015625 204.957031 L 371.015625 261.964844 L 81.949219 261.964844 Z M 81.949219 204.957031 "/></g></g><g clip-rule="nonzero" clip-path="url(#dbb20754fa)"><g clip-rule="nonzero" clip-path="url(#80270d8bcf)"><path style=" stroke:none;fill-rule:nonzero;fill:#ffffff;fill-opacity:1;" d="M 81.949219 204.957031 L 371.015625 204.957031 L 371.015625 261.964844 L 81.949219 261.964844 Z M 81.949219 204.957031 "/></g></g></g></svg>