<svg xmlns="http://www.w3.org/2000/svg" xmlns:xlink="http://www.w3.org/1999/xlink" width="500" zoomAndPan="magnify" viewBox="0 0 375 149.999998" height="200" preserveAspectRatio="xMidYMid meet" version="1.0"><defs><clipPath id="c0d1bc228b"><path d="M 112 149 L 121 149 L 121 149.25 L 112 149.25 Z M 112 149 " clip-rule="nonzero"/></clipPath><clipPath id="ccd3dc8fd9"><path d="M 155 149 L 157 149 L 157 149.25 L 155 149.25 Z M 155 149 " clip-rule="nonzero"/></clipPath><clipPath id="7e36bb3d8f"><path d="M 231 149 L 238 149 L 238 149.25 L 231 149.25 Z M 231 149 " clip-rule="nonzero"/></clipPath><clipPath id="ec665e957f"><path d="M 250 149 L 256 149 L 256 149.25 L 250 149.25 Z M 250 149 " clip-rule="nonzero"/></clipPath><clipPath id="25999ffc8f"><path d="M 257 149 L 266 149 L 266 149.25 L 257 149.25 Z M 257 149 " clip-rule="nonzero"/></clipPath><clipPath id="f7fc46d273"><path d="M 269 149 L 277 149 L 277 149.25 L 269 149.25 Z M 269 149 " clip-rule="nonzero"/></clipPath><clipPath id="8c9ce477dd"><path d="M 99 149 L 110 149 L 110 149.25 L 99 149.25 Z M 99 149 " clip-rule="nonzero"/></clipPath><clipPath id="1007a60244"><path d="M 123 149 L 133 149 L 133 149.25 L 123 149.25 Z M 123 149 " clip-rule="nonzero"/></clipPath><clipPath id="712374ecbd"><path d="M 145 149 L 153 149 L 153 149.25 L 145 149.25 Z M 145 149 " clip-rule="nonzero"/></clipPath><clipPath id="968abfacc1"><path d="M 159 149 L 165 149 L 165 149.25 L 159 149.25 Z M 159 149 " clip-rule="nonzero"/></clipPath><clipPath id="459405f841"><path d="M 190 149 L 198 149 L 198 149.25 L 190 149.25 Z M 190 149 " clip-rule="nonzero"/></clipPath><clipPath id="3a8f2b5e01"><path d="M 240 149 L 248 149 L 248 149.25 L 240 149.25 Z M 240 149 " clip-rule="nonzero"/></clipPath></defs><path fill="#ffffff" d="M 84.863281 19.808594 C 73.285156 20.863281 66.148438 25.015625 62.640625 32.734375 C 61.003906 36.363281 61.179688 41.566406 62.992188 43.671875 C 63.109375 43.789062 63.691406 43.496094 64.335938 42.914062 C 65.273438 42.09375 65.332031 41.566406 64.863281 39.34375 C 63.984375 35.132812 65.15625 30.6875 68.078125 27.53125 C 70.945312 24.429688 73.632812 22.96875 78.605469 21.796875 C 92.875 18.523438 109.65625 20.863281 146.851562 31.449219 C 176.558594 39.929688 207.082031 46.539062 237.140625 50.984375 C 242.523438 51.804688 247.140625 52.5625 247.316406 52.738281 C 247.492188 52.914062 245.445312 58.003906 242.757812 64.027344 C 240.125 70.113281 234.394531 83.15625 230.066406 93.15625 C 222.757812 110.0625 221.117188 113.453125 221.117188 111.757812 C 221.117188 111.054688 204.335938 71.515625 202.757812 68.355469 C 201.820312 66.601562 201.644531 66.542969 198.019531 66.542969 C 195.914062 66.542969 194.21875 66.601562 194.21875 66.660156 C 194.21875 67.539062 218.078125 121.175781 218.488281 121.351562 C 218.839844 121.410156 221.527344 115.675781 224.570312 108.480469 C 229.539062 96.902344 248.605469 52.972656 248.839844 52.679688 C 248.898438 52.621094 253.28125 53.089844 258.546875 53.675781 C 263.867188 54.320312 274.21875 55.195312 281.644531 55.722656 C 289.011719 56.25 295.210938 56.777344 295.328125 56.890625 C 295.445312 57.007812 294.976562 58.003906 294.277344 59.171875 C 292.753906 61.570312 289.128906 64.964844 286.675781 66.25 C 284.101562 67.539062 284.453125 68.179688 287.667969 68.121094 L 290.417969 68.007812 L 290.710938 92.398438 C 291 115.734375 291.058594 116.847656 292.171875 118.367188 C 294.394531 121.292969 296.90625 122.226562 302.171875 121.992188 C 307.84375 121.703125 310.941406 120.179688 314.742188 115.734375 L 317.257812 112.871094 L 320.183594 115.441406 C 335.152344 128.601562 358.71875 121.820312 364.042969 102.808594 C 366.207031 94.855469 365.796875 89.0625 362.347656 81.925781 C 357.902344 72.453125 348.660156 66.542969 338.429688 66.542969 C 323.339844 66.542969 311.117188 79.121094 311.175781 94.621094 C 311.234375 99.707031 311.996094 102.867188 314.511719 107.898438 L 316.617188 112.167969 L 314.335938 114.917969 C 309.597656 120.589844 302.988281 122.34375 299.539062 118.953125 L 298.019531 117.429688 L 297.84375 92.574219 L 297.667969 67.714844 L 304.453125 67.714844 C 308.546875 67.714844 311.175781 67.480469 311.175781 67.128906 C 311.175781 66.777344 308.546875 66.542969 304.453125 66.542969 L 297.726562 66.542969 L 297.726562 56.777344 L 314.570312 56.425781 C 332.40625 56.132812 338.660156 55.429688 346.441406 52.796875 C 353.515625 50.398438 359.128906 45.835938 361.527344 40.574219 C 362.929688 37.53125 362.988281 31.507812 361.703125 28.933594 C 360.007812 25.597656 359.714844 25.425781 358.195312 26.828125 L 356.90625 28.054688 L 358.3125 30.6875 C 361.175781 36.1875 359.773438 42.679688 354.683594 47.183594 C 349.070312 52.15625 339.011719 54.554688 320.359375 55.488281 C 306.382812 56.191406 297.726562 55.78125 297.726562 54.496094 C 297.726562 54.027344 297.492188 53.675781 297.140625 53.675781 C 296.847656 53.675781 296.558594 54.085938 296.558594 54.609375 C 296.558594 55.488281 295.796875 55.546875 288.835938 55.195312 C 280.183594 54.726562 264.917969 53.441406 255.796875 52.445312 C 251.058594 51.921875 249.773438 51.570312 249.773438 50.867188 C 249.773438 49.054688 259.65625 29.8125 262.582031 26.007812 C 264.21875 23.785156 265.5625 21.914062 265.5625 21.738281 C 265.5625 21.5625 263.925781 21.503906 261.996094 21.621094 L 258.371094 21.796875 L 257.316406 26.769531 C 256.148438 32.5 255.503906 34.375 251.410156 44.140625 C 249.65625 48.46875 248.136719 51.335938 247.609375 51.335938 C 246.148438 51.335938 226.792969 48.351562 218.78125 46.890625 C 205.855469 44.550781 194.863281 41.800781 175.738281 36.1875 C 131.179688 23.199219 103.109375 18.113281 84.863281 19.808594 Z M 343.75 69.117188 C 349.1875 71.691406 354.976562 78.828125 357.375 86.195312 C 362.054688 100.175781 358.253906 113.863281 348.371094 119.070312 C 345.796875 120.414062 344.625 120.648438 340.417969 120.648438 C 335.855469 120.648438 335.152344 120.472656 331.761719 118.660156 C 322.988281 113.921875 317.609375 103.394531 317.609375 91.109375 C 317.667969 83.214844 319.1875 78.359375 323.28125 73.5625 C 328.078125 68.007812 337.082031 66.015625 343.75 69.117188 Z M 343.75 69.117188 " fill-opacity="1" fill-rule="nonzero"/><path fill="#ffffff" d="M 28.078125 67.949219 C 23.402344 69.820312 21.0625 71.398438 18.019531 74.675781 C 3.050781 90.640625 12.289062 119.1875 33.402344 122.050781 C 40.828125 123.046875 49.191406 120.765625 56.089844 115.910156 L 58.78125 113.980469 L 60.710938 116.261719 C 62.992188 118.894531 68.722656 121.875 72.640625 122.402344 C 78.136719 123.222656 85.273438 120.941406 89.191406 117.082031 C 92.347656 113.980469 93.691406 110.9375 93.75 106.667969 C 93.808594 98.128906 88.957031 93.214844 77.554688 90.175781 C 69.773438 88.128906 66.5 86.3125 64.511719 82.980469 C 62.582031 79.644531 62.40625 75.316406 64.160156 72.394531 C 67.4375 66.71875 78.605469 65.898438 83.226562 71.046875 C 84.628906 72.625 86.03125 76.136719 86.03125 78.242188 C 86.03125 79.9375 86.089844 79.996094 89.015625 79.996094 C 92.289062 79.996094 92.347656 79.878906 90.242188 75.316406 C 87.144531 68.707031 77.609375 64.90625 69.542969 67.128906 C 57.378906 70.519531 54.394531 86.136719 64.511719 93.449219 C 65.972656 94.503906 69.949219 96.199219 74.21875 97.542969 C 82.640625 100.175781 85.507812 101.929688 87.203125 105.382812 C 90.183594 111.640625 87.378906 118.425781 80.828125 120.648438 C 71.53125 123.808594 62.113281 118.132812 62.054688 109.300781 L 62.054688 106.726562 L 59.601562 107.136719 C 58.253906 107.371094 57.027344 107.664062 56.851562 107.839844 C 56.675781 108.015625 56.96875 109.242188 57.496094 110.703125 L 58.488281 113.277344 L 54.863281 115.617188 C 49.773438 118.894531 46.734375 119.886719 41.589844 119.945312 C 35.683594 119.945312 31.53125 118.308594 27.027344 114.15625 C 23.8125 111.230469 19.949219 106.085938 19.949219 104.796875 C 19.949219 104.503906 22.289062 103.335938 25.097656 102.105469 C 37.378906 96.960938 46.324219 92.632812 48.546875 90.699219 C 57.671875 82.921875 55.273438 71.867188 43.460938 67.597656 C 39.308594 66.074219 32.171875 66.25 28.078125 67.949219 Z M 38.722656 67.773438 C 44.394531 69 48.546875 74.558594 47.902344 80.230469 C 47.320312 85.378906 42.347656 92.515625 37.203125 95.554688 C 33.460938 97.71875 19.949219 103.453125 19.367188 103.101562 C 18.488281 102.574219 17.4375 96.316406 17.4375 91.695312 C 17.4375 83.914062 19.777344 77.421875 24.21875 72.566406 C 27.378906 69.117188 29.484375 68.121094 35.273438 67.1875 C 35.507812 67.128906 37.027344 67.421875 38.722656 67.773438 Z M 38.722656 67.773438 " fill-opacity="1" fill-rule="nonzero"/><path fill="#ffffff" d="M 114.101562 67.890625 C 98.664062 73.152344 91.703125 91.285156 99.132812 106.609375 C 104.101562 116.671875 112.757812 122.226562 123.75 122.167969 C 131.46875 122.167969 138.019531 119.710938 144.804688 114.15625 L 147.960938 111.582031 L 150.710938 114.507812 C 157.433594 121.703125 169.597656 124.273438 179.132812 120.53125 C 190.59375 116.085938 196.96875 105.910156 196.441406 92.863281 C 196.265625 87.71875 196.03125 86.722656 194.101562 82.863281 C 188.898438 72.394531 180.125 66.601562 169.480469 66.542969 C 155.5625 66.542969 144.511719 76.898438 142.464844 91.753906 C 141.9375 95.789062 143.167969 101.988281 145.386719 106.726562 L 147.375 110.9375 L 144.628906 113.335938 C 141.003906 116.4375 135.738281 119.070312 131.238281 119.886719 C 126.851562 120.707031 122.347656 119.945312 117.726562 117.605469 C 114.101562 115.734375 108.664062 110.179688 106.382812 105.96875 C 100.886719 95.847656 102.171875 80.757812 109.191406 73.035156 C 114.980469 66.601562 124.453125 65.492188 130.066406 70.578125 C 132.640625 72.917969 133.984375 75.492188 133.984375 78.242188 C 133.984375 79.996094 133.984375 79.996094 137.203125 79.996094 C 138.957031 79.996094 140.417969 79.878906 140.417969 79.703125 C 140.417969 79.527344 139.773438 78.125 139.015625 76.605469 C 134.6875 68.0625 124.277344 64.4375 114.101562 67.890625 Z M 175.386719 69.527344 C 186.324219 74.964844 193.28125 92.222656 189.832031 105.324219 C 187.316406 114.917969 181.527344 120.179688 172.699219 120.765625 C 166.851562 121.175781 162.875 119.539062 157.902344 114.566406 C 151.878906 108.539062 149.074219 101.289062 149.015625 91.695312 C 148.957031 83.332031 150.828125 77.65625 155.273438 73.09375 C 159.132812 69 161.9375 67.832031 167.960938 67.773438 C 171.179688 67.714844 172.40625 68.007812 175.386719 69.527344 Z M 175.386719 69.527344 " fill-opacity="1" fill-rule="nonzero"/><path fill="#ffffff" d="M 256.964844 67.65625 C 251.410156 69.585938 246.792969 73.679688 244.746094 78.535156 L 243.867188 80.640625 L 246.675781 80.464844 L 249.480469 80.289062 L 249.890625 77.773438 C 250.476562 74.265625 251.996094 71.867188 254.976562 69.761719 C 257.082031 68.296875 258.136719 68.007812 261.761719 67.832031 C 265.5625 67.597656 266.441406 67.773438 268.605469 69.058594 C 271.9375 70.988281 273.867188 74.441406 273.984375 78.535156 C 274.042969 81.109375 273.808594 81.925781 272.640625 83.15625 C 270.59375 85.378906 266.324219 87.601562 257.667969 91.050781 C 248.019531 94.914062 245.5625 96.375 243.398438 99.472656 C 238.136719 107.136719 240.417969 116.378906 248.605469 120.707031 C 250.242188 121.585938 251.9375 121.820312 256.792969 121.820312 C 262.40625 121.820312 263.222656 121.644531 266.03125 120.179688 C 267.726562 119.304688 270.183594 117.488281 271.410156 116.144531 L 273.75 113.804688 L 273.75 121.527344 L 281.058594 121.527344 L 280.941406 99.472656 C 280.824219 86.722656 280.535156 76.488281 280.183594 75.257812 C 279.363281 72.277344 275.210938 68.589844 271.351562 67.480469 C 267.257812 66.25 260.769531 66.308594 256.964844 67.65625 Z M 273.75 98.1875 L 273.75 112.285156 L 270.359375 115.675781 C 267.609375 118.425781 266.265625 119.304688 263.515625 120.0625 C 257.023438 121.992188 251.585938 119.769531 248.839844 114.214844 C 247.492188 111.347656 247.316406 110.472656 247.550781 106.902344 C 248.078125 99.417969 251.585938 95.496094 262.523438 90.234375 C 266.207031 88.417969 270.183594 86.3125 271.351562 85.496094 C 272.523438 84.734375 273.515625 84.089844 273.574219 84.089844 C 273.691406 84.089844 273.75 90.410156 273.75 98.1875 Z M 273.75 98.1875 " fill-opacity="1" fill-rule="nonzero"/><g clip-path="url(#c0d1bc228b)"><path fill="#ffffff" d="M 113.925781 150.1875 C 111.0625 152.46875 112.464844 156.621094 116.207031 156.621094 C 119.832031 156.621094 121.644531 153.402344 119.539062 150.890625 C 117.960938 149.015625 115.796875 148.726562 113.925781 150.1875 Z M 117.667969 150.773438 C 119.890625 152 118.722656 155.453125 116.03125 155.453125 C 112.933594 155.453125 113.167969 151.003906 116.324219 150.246094 C 116.441406 150.1875 117.027344 150.480469 117.667969 150.773438 Z M 117.667969 150.773438 " fill-opacity="1" fill-rule="nonzero"/></g><g clip-path="url(#ccd3dc8fd9)"><path fill="#ffffff" d="M 155.273438 149.894531 C 154.863281 150.890625 155.503906 152.058594 156.265625 151.648438 C 156.96875 151.179688 156.96875 149.015625 156.207031 149.015625 C 155.855469 149.015625 155.445312 149.425781 155.273438 149.894531 Z M 155.273438 149.894531 " fill-opacity="1" fill-rule="nonzero"/></g><g clip-path="url(#7e36bb3d8f)"><path fill="#ffffff" d="M 233.28125 149.660156 C 231.351562 150.773438 232.40625 153.695312 234.6875 153.695312 C 236.792969 153.695312 235.796875 155.394531 233.574219 155.566406 C 231.410156 155.800781 231.410156 155.800781 232.816406 156.386719 C 234.746094 157.265625 237.140625 156.5625 237.375 155.042969 C 237.550781 153.753906 236.617188 152.761719 234.921875 152.46875 C 232.699219 152.058594 233.164062 150.773438 235.5625 150.773438 C 237.667969 150.714844 237.726562 150.65625 236.675781 149.894531 C 235.328125 148.898438 234.6875 148.839844 233.28125 149.660156 Z M 233.28125 149.660156 " fill-opacity="1" fill-rule="nonzero"/></g><g clip-path="url(#ec665e957f)"><path fill="#ffffff" d="M 250.710938 149.425781 C 250.535156 149.601562 250.359375 151.355469 250.359375 153.230469 L 250.359375 156.621094 L 253.046875 156.621094 C 254.628906 156.621094 255.5625 156.386719 255.328125 156.035156 C 255.152344 155.683594 254.335938 155.453125 253.515625 155.453125 C 252.230469 155.453125 252.113281 155.21875 252.113281 152.585938 C 252.113281 149.835938 251.585938 148.609375 250.710938 149.425781 Z M 250.710938 149.425781 " fill-opacity="1" fill-rule="nonzero"/></g><g clip-path="url(#25999ffc8f)"><path fill="#ffffff" d="M 260.300781 149.425781 C 257.902344 150.304688 257.140625 153.988281 259.011719 155.625 C 260.125 156.621094 262.988281 156.914062 264.160156 156.152344 C 265.503906 155.277344 266.148438 153.230469 265.5625 151.707031 C 264.746094 149.542969 262.640625 148.609375 260.300781 149.425781 Z M 263.457031 151.121094 C 264.570312 152.175781 264.6875 153.753906 263.691406 154.75 C 261.410156 157.03125 257.84375 153.753906 260.007812 151.355469 C 261.292969 149.953125 262.230469 149.894531 263.457031 151.121094 Z M 263.457031 151.121094 " fill-opacity="1" fill-rule="nonzero"/></g><g clip-path="url(#f7fc46d273)"><path fill="#ffffff" d="M 269.421875 149.425781 C 268.835938 150.070312 269.011719 156.621094 269.65625 156.621094 C 270.007812 156.621094 270.242188 155.566406 270.242188 154.28125 C 270.242188 152.996094 270.417969 151.941406 270.710938 151.941406 C 270.941406 151.941406 271.761719 152.996094 272.582031 154.28125 C 273.398438 155.625 274.453125 156.621094 275.09375 156.621094 C 276.03125 156.621094 276.148438 156.152344 275.972656 152.9375 C 275.796875 148.78125 274.746094 148.082031 274.335938 151.824219 L 274.042969 154.339844 L 272.582031 152 C 271.175781 149.660156 270.066406 148.78125 269.421875 149.425781 Z M 269.421875 149.425781 " fill-opacity="1" fill-rule="nonzero"/></g><g clip-path="url(#8c9ce477dd)"><path fill="#ffffff" d="M 100.007812 153.113281 C 100.710938 155.742188 101.179688 156.621094 101.9375 156.621094 C 102.523438 156.621094 102.992188 156.269531 102.992188 155.859375 C 103.050781 155.507812 103.402344 154.339844 103.808594 153.402344 L 104.570312 151.648438 L 105.273438 154.105469 C 106.207031 157.617188 107.902344 157.558594 108.78125 154.046875 C 109.132812 152.644531 109.539062 151.0625 109.773438 150.539062 C 110.007812 149.953125 109.832031 149.601562 109.25 149.601562 C 108.664062 149.601562 108.195312 150.363281 107.902344 151.648438 C 107.378906 154.515625 106.792969 154.632812 105.972656 151.941406 C 105.097656 148.957031 103.808594 148.957031 102.992188 151.941406 C 102.640625 153.230469 102.230469 154.28125 102.113281 154.28125 C 101.996094 154.28125 101.585938 153.230469 101.238281 151.941406 C 100.886719 150.65625 100.242188 149.601562 99.832031 149.601562 C 99.25 149.601562 99.25 150.304688 100.007812 153.113281 Z M 100.007812 153.113281 " fill-opacity="1" fill-rule="nonzero"/></g><g clip-path="url(#1007a60244)"><path fill="#ffffff" d="M 123.808594 150.539062 C 123.632812 151.0625 123.457031 152.644531 123.457031 154.046875 C 123.457031 155.917969 123.691406 156.621094 124.335938 156.621094 C 124.980469 156.621094 125.214844 155.917969 125.273438 154.105469 L 125.332031 151.648438 L 126.441406 154.105469 C 127.085938 155.507812 127.84375 156.621094 128.136719 156.621094 C 128.429688 156.621094 129.191406 155.507812 129.832031 154.105469 L 130.945312 151.648438 L 131.003906 154.105469 C 131.0625 158.023438 132.230469 157.089844 132.230469 153.113281 C 132.230469 150.070312 132.054688 149.601562 131.179688 149.601562 C 130.417969 149.601562 129.714844 150.421875 129.074219 152.058594 L 128.019531 154.574219 L 126.910156 152.058594 C 125.738281 149.542969 124.453125 148.898438 123.808594 150.539062 Z M 123.808594 150.539062 " fill-opacity="1" fill-rule="nonzero"/></g><g clip-path="url(#712374ecbd)"><path fill="#ffffff" d="M 145.097656 153.113281 C 145.097656 157.265625 146.148438 157.847656 146.382812 153.8125 L 146.558594 151.0625 L 148.195312 153.871094 C 150.476562 157.730469 151.761719 157.441406 151.996094 152.9375 C 152.171875 150.1875 152.054688 149.601562 151.296875 149.601562 C 150.59375 149.601562 150.359375 150.1875 150.359375 152.058594 L 150.359375 154.515625 L 148.546875 152.058594 C 145.972656 148.550781 145.097656 148.78125 145.097656 153.113281 Z M 145.097656 153.113281 " fill-opacity="1" fill-rule="nonzero"/></g><g clip-path="url(#968abfacc1)"><path fill="#ffffff" d="M 160.300781 150.480469 C 159.304688 151.648438 159.949219 152.996094 161.820312 153.695312 C 163.75 154.457031 163.339844 155.800781 161.292969 155.566406 C 160.417969 155.453125 159.714844 155.625 159.714844 156.035156 C 159.714844 156.445312 160.652344 156.621094 162.230469 156.503906 C 164.394531 156.328125 164.6875 156.152344 164.6875 154.867188 C 164.6875 153.929688 164.21875 153.171875 163.226562 152.703125 C 161.238281 151.707031 161.351562 150.421875 163.398438 150.65625 C 164.277344 150.714844 164.980469 150.539062 164.980469 150.1875 C 164.980469 149.25 161.121094 149.484375 160.300781 150.480469 Z M 160.300781 150.480469 " fill-opacity="1" fill-rule="nonzero"/></g><g clip-path="url(#459405f841)"><path fill="#ffffff" d="M 192.113281 151.765625 C 190.183594 156.386719 190.125 156.621094 190.945312 156.621094 C 191.410156 156.621094 191.878906 156.210938 192.113281 155.742188 C 192.289062 155.277344 193.109375 154.867188 193.925781 154.867188 C 194.746094 154.867188 195.5625 155.277344 195.738281 155.742188 C 195.972656 156.210938 196.441406 156.621094 196.910156 156.621094 C 197.492188 156.621094 197.375 155.800781 196.441406 153.113281 C 194.921875 148.898438 193.574219 148.492188 192.113281 151.765625 Z M 194.804688 153.230469 C 194.804688 153.8125 194.394531 154.28125 193.925781 154.28125 C 192.992188 154.28125 192.816406 153.285156 193.398438 151.648438 C 193.691406 150.890625 193.867188 150.832031 194.277344 151.472656 C 194.570312 151.882812 194.804688 152.703125 194.804688 153.230469 Z M 194.804688 153.230469 " fill-opacity="1" fill-rule="nonzero"/></g><g clip-path="url(#3a8f2b5e01)"><path fill="#ffffff" d="M 241.585938 152.820312 C 240.242188 156.09375 240.417969 157.847656 241.820312 155.859375 C 242.757812 154.632812 245.445312 154.515625 245.914062 155.742188 C 246.265625 156.738281 247.433594 156.914062 247.433594 155.976562 C 247.433594 155.625 246.851562 154.046875 246.207031 152.46875 C 244.511719 148.550781 243.28125 148.667969 241.585938 152.820312 Z M 245.09375 153.519531 C 245.09375 153.929688 244.570312 154.28125 243.925781 154.28125 C 242.640625 154.28125 242.582031 154.105469 243.164062 152 C 243.515625 150.65625 243.574219 150.65625 244.335938 151.648438 C 244.746094 152.292969 245.09375 153.113281 245.09375 153.519531 Z M 245.09375 153.519531 " fill-opacity="1" fill-rule="nonzero"/></g></svg>