<svg xmlns="http://www.w3.org/2000/svg" xmlns:xlink="http://www.w3.org/1999/xlink" width="500" zoomAndPan="magnify" viewBox="0 0 375 74.999997" height="100" preserveAspectRatio="xMidYMid meet" version="1.0"><defs><g/><clipPath id="d4bfca2c9f"><path d="M 41 22 L 47.363281 22 L 47.363281 65 L 41 65 Z M 41 22 " clip-rule="nonzero"/></clipPath><clipPath id="5345d8dbc1"><path d="M 6.113281 22 L 13 22 L 13 65 L 6.113281 65 Z M 6.113281 22 " clip-rule="nonzero"/></clipPath><clipPath id="a4ea278f45"><path d="M 26 2.402344 L 36 2.402344 L 36 72.902344 L 26 72.902344 Z M 26 2.402344 " clip-rule="nonzero"/></clipPath><clipPath id="be4d235910"><path d="M 17 2.402344 L 27 2.402344 L 27 72.902344 L 17 72.902344 Z M 17 2.402344 " clip-rule="nonzero"/></clipPath></defs><g clip-path="url(#d4bfca2c9f)"><path fill="#2e2c2c" d="M 47.328125 53.421875 L 47.328125 22.878906 L 41.292969 29.503906 L 41.292969 64.394531 L 45.476562 61.96875 L 47.328125 60.898438 L 47.328125 53.421875 " fill-opacity="1" fill-rule="nonzero"/></g><g clip-path="url(#5345d8dbc1)"><path fill="#20ad96" d="M 6.140625 22.878906 L 6.140625 60.898438 L 8.910156 62.5 L 12.175781 64.394531 L 12.175781 29.503906 L 6.140625 22.878906 " fill-opacity="1" fill-rule="nonzero"/></g><g clip-path="url(#a4ea278f45)"><path fill="#2e2c2c" d="M 35.609375 2.398438 L 29.574219 9.023438 L 29.574219 64.152344 L 26.734375 65.796875 L 26.734375 72.898438 L 35.609375 67.761719 L 35.609375 2.398438 " fill-opacity="1" fill-rule="nonzero"/></g><g clip-path="url(#be4d235910)"><path fill="#20ad96" d="M 23.894531 64.152344 L 23.894531 9.023438 L 17.855469 2.398438 L 17.855469 67.757812 L 19.34375 68.621094 L 26.734375 72.898438 L 26.734375 65.796875 L 23.894531 64.152344 " fill-opacity="1" fill-rule="nonzero"/></g><g fill="#2e2c2c" fill-opacity="1"><g transform="translate(63.909042, 55.439681)"><g><path d="M 16.234375 0.375 C 13.742188 0.375 11.5 -0.0625 9.5 -0.9375 C 7.507812 -1.8125 5.941406 -3.046875 4.796875 -4.640625 C 3.660156 -6.242188 3.09375 -8.113281 3.09375 -10.25 L 9.609375 -10.25 C 9.753906 -8.644531 10.382812 -7.328125 11.5 -6.296875 C 12.625 -5.265625 14.203125 -4.75 16.234375 -4.75 C 18.335938 -4.75 19.972656 -5.253906 21.140625 -6.265625 C 22.316406 -7.285156 22.90625 -8.597656 22.90625 -10.203125 C 22.90625 -11.441406 22.539062 -12.453125 21.8125 -13.234375 C 21.082031 -14.023438 20.175781 -14.632812 19.09375 -15.0625 C 18.007812 -15.488281 16.503906 -15.953125 14.578125 -16.453125 C 12.160156 -17.085938 10.191406 -17.734375 8.671875 -18.390625 C 7.160156 -19.054688 5.867188 -20.082031 4.796875 -21.46875 C 3.734375 -22.851562 3.203125 -24.707031 3.203125 -27.03125 C 3.203125 -29.164062 3.734375 -31.03125 4.796875 -32.625 C 5.867188 -34.226562 7.363281 -35.457031 9.28125 -36.3125 C 11.207031 -37.164062 13.4375 -37.59375 15.96875 -37.59375 C 19.5625 -37.59375 22.503906 -36.691406 24.796875 -34.890625 C 27.097656 -33.097656 28.375 -30.632812 28.625 -27.5 L 21.890625 -27.5 C 21.785156 -28.851562 21.144531 -30.007812 19.96875 -30.96875 C 18.800781 -31.9375 17.253906 -32.421875 15.328125 -32.421875 C 13.578125 -32.421875 12.148438 -31.972656 11.046875 -31.078125 C 9.953125 -30.191406 9.40625 -28.910156 9.40625 -27.234375 C 9.40625 -26.097656 9.75 -25.164062 10.4375 -24.4375 C 11.132812 -23.707031 12.015625 -23.128906 13.078125 -22.703125 C 14.148438 -22.273438 15.613281 -21.8125 17.46875 -21.3125 C 19.925781 -20.632812 21.925781 -19.957031 23.46875 -19.28125 C 25.019531 -18.601562 26.335938 -17.5625 27.421875 -16.15625 C 28.503906 -14.75 29.046875 -12.867188 29.046875 -10.515625 C 29.046875 -8.628906 28.539062 -6.847656 27.53125 -5.171875 C 26.519531 -3.503906 25.039062 -2.160156 23.09375 -1.140625 C 21.15625 -0.128906 18.867188 0.375 16.234375 0.375 Z M 16.234375 0.375 "/></g></g></g><g fill="#2e2c2c" fill-opacity="1"><g transform="translate(96.163702, 55.439681)"><g><path d="M 7.109375 -33.328125 C 6.003906 -33.328125 5.078125 -33.695312 4.328125 -34.4375 C 3.578125 -35.1875 3.203125 -36.113281 3.203125 -37.21875 C 3.203125 -38.320312 3.578125 -39.25 4.328125 -40 C 5.078125 -40.75 6.003906 -41.125 7.109375 -41.125 C 8.171875 -41.125 9.078125 -40.75 9.828125 -40 C 10.578125 -39.25 10.953125 -38.320312 10.953125 -37.21875 C 10.953125 -36.113281 10.578125 -35.1875 9.828125 -34.4375 C 9.078125 -33.695312 8.171875 -33.328125 7.109375 -33.328125 Z M 10.09375 -29.421875 L 10.09375 0 L 4 0 L 4 -29.421875 Z M 10.09375 -29.421875 "/></g></g></g><g fill="#2e2c2c" fill-opacity="1"><g transform="translate(110.261763, 55.439681)"><g><path d="M 18.859375 -29.90625 C 21.171875 -29.90625 23.242188 -29.425781 25.078125 -28.46875 C 26.910156 -27.507812 28.34375 -26.082031 29.375 -24.1875 C 30.40625 -22.300781 30.921875 -20.023438 30.921875 -17.359375 L 30.921875 0 L 24.890625 0 L 24.890625 -16.453125 C 24.890625 -19.085938 24.226562 -21.109375 22.90625 -22.515625 C 21.59375 -23.921875 19.796875 -24.625 17.515625 -24.625 C 15.234375 -24.625 13.425781 -23.921875 12.09375 -22.515625 C 10.757812 -21.109375 10.09375 -19.085938 10.09375 -16.453125 L 10.09375 0 L 4 0 L 4 -29.421875 L 10.09375 -29.421875 L 10.09375 -26.0625 C 11.09375 -27.269531 12.363281 -28.210938 13.90625 -28.890625 C 15.457031 -29.566406 17.109375 -29.90625 18.859375 -29.90625 Z M 18.859375 -29.90625 "/></g></g></g><g fill="#2e2c2c" fill-opacity="1"><g transform="translate(144.91951, 55.439681)"><g><path d="M 1.96875 -14.84375 C 1.96875 -17.800781 2.582031 -20.414062 3.8125 -22.6875 C 5.039062 -24.96875 6.710938 -26.738281 8.828125 -28 C 10.953125 -29.269531 13.316406 -29.90625 15.921875 -29.90625 C 17.835938 -29.90625 19.726562 -29.484375 21.59375 -28.640625 C 23.46875 -27.804688 24.957031 -26.695312 26.0625 -25.3125 L 26.0625 -39.515625 L 32.203125 -39.515625 L 32.203125 0 L 26.0625 0 L 26.0625 -4.4375 C 25.0625 -3.007812 23.679688 -1.832031 21.921875 -0.90625 C 20.160156 0.0195312 18.140625 0.484375 15.859375 0.484375 C 13.296875 0.484375 10.953125 -0.164062 8.828125 -1.46875 C 6.710938 -2.769531 5.039062 -4.585938 3.8125 -6.921875 C 2.582031 -9.253906 1.96875 -11.894531 1.96875 -14.84375 Z M 26.0625 -14.734375 C 26.0625 -16.765625 25.640625 -18.523438 24.796875 -20.015625 C 23.960938 -21.515625 22.867188 -22.65625 21.515625 -23.4375 C 20.171875 -24.226562 18.710938 -24.625 17.140625 -24.625 C 15.578125 -24.625 14.117188 -24.238281 12.765625 -23.46875 C 11.410156 -22.707031 10.3125 -21.585938 9.46875 -20.109375 C 8.632812 -18.628906 8.21875 -16.875 8.21875 -14.84375 C 8.21875 -12.8125 8.632812 -11.03125 9.46875 -9.5 C 10.3125 -7.96875 11.414062 -6.800781 12.78125 -6 C 14.15625 -5.207031 15.609375 -4.8125 17.140625 -4.8125 C 18.710938 -4.8125 20.171875 -5.203125 21.515625 -5.984375 C 22.867188 -6.765625 23.960938 -7.910156 24.796875 -9.421875 C 25.640625 -10.941406 26.0625 -12.710938 26.0625 -14.734375 Z M 26.0625 -14.734375 "/></g></g></g><g fill="#2e2c2c" fill-opacity="1"><g transform="translate(181.125902, 55.439681)"><g><path d="M 7.109375 -33.328125 C 6.003906 -33.328125 5.078125 -33.695312 4.328125 -34.4375 C 3.578125 -35.1875 3.203125 -36.113281 3.203125 -37.21875 C 3.203125 -38.320312 3.578125 -39.25 4.328125 -40 C 5.078125 -40.75 6.003906 -41.125 7.109375 -41.125 C 8.171875 -41.125 9.078125 -40.75 9.828125 -40 C 10.578125 -39.25 10.953125 -38.320312 10.953125 -37.21875 C 10.953125 -36.113281 10.578125 -35.1875 9.828125 -34.4375 C 9.078125 -33.695312 8.171875 -33.328125 7.109375 -33.328125 Z M 10.09375 -29.421875 L 10.09375 0 L 4 0 L 4 -29.421875 Z M 10.09375 -29.421875 "/></g></g></g><g fill="#2e2c2c" fill-opacity="1"><g transform="translate(195.223962, 55.439681)"><g><path d="M 1.96875 -14.734375 C 1.96875 -17.765625 2.582031 -20.425781 3.8125 -22.71875 C 5.039062 -25.019531 6.738281 -26.789062 8.90625 -28.03125 C 11.082031 -29.28125 13.578125 -29.90625 16.390625 -29.90625 C 19.953125 -29.90625 22.898438 -29.054688 25.234375 -27.359375 C 27.566406 -25.671875 29.140625 -23.265625 29.953125 -20.140625 L 23.390625 -20.140625 C 22.859375 -21.597656 22.003906 -22.734375 20.828125 -23.546875 C 19.648438 -24.367188 18.171875 -24.78125 16.390625 -24.78125 C 13.898438 -24.78125 11.914062 -23.898438 10.4375 -22.140625 C 8.957031 -20.378906 8.21875 -17.910156 8.21875 -14.734375 C 8.21875 -11.566406 8.957031 -9.09375 10.4375 -7.3125 C 11.914062 -5.53125 13.898438 -4.640625 16.390625 -4.640625 C 19.921875 -4.640625 22.253906 -6.191406 23.390625 -9.296875 L 29.953125 -9.296875 C 29.097656 -6.304688 27.492188 -3.925781 25.140625 -2.15625 C 22.796875 -0.394531 19.878906 0.484375 16.390625 0.484375 C 13.578125 0.484375 11.082031 -0.144531 8.90625 -1.40625 C 6.738281 -2.675781 5.039062 -4.457031 3.8125 -6.75 C 2.582031 -9.050781 1.96875 -11.710938 1.96875 -14.734375 Z M 1.96875 -14.734375 "/></g></g></g><g fill="#2e2c2c" fill-opacity="1"><g transform="translate(227.265018, 55.439681)"><g><path d="M 16.765625 0.484375 C 13.992188 0.484375 11.484375 -0.144531 9.234375 -1.40625 C 6.992188 -2.675781 5.234375 -4.457031 3.953125 -6.75 C 2.671875 -9.050781 2.03125 -11.710938 2.03125 -14.734375 C 2.03125 -17.722656 2.6875 -20.375 4 -22.6875 C 5.320312 -25.007812 7.117188 -26.789062 9.390625 -28.03125 C 11.671875 -29.28125 14.21875 -29.90625 17.03125 -29.90625 C 19.84375 -29.90625 22.390625 -29.28125 24.671875 -28.03125 C 26.953125 -26.789062 28.75 -25.007812 30.0625 -22.6875 C 31.382812 -20.375 32.046875 -17.722656 32.046875 -14.734375 C 32.046875 -11.742188 31.367188 -9.09375 30.015625 -6.78125 C 28.660156 -4.46875 26.816406 -2.675781 24.484375 -1.40625 C 22.148438 -0.144531 19.578125 0.484375 16.765625 0.484375 Z M 16.765625 -4.8125 C 18.335938 -4.8125 19.804688 -5.179688 21.171875 -5.921875 C 22.546875 -6.671875 23.660156 -7.789062 24.515625 -9.28125 C 25.367188 -10.78125 25.796875 -12.597656 25.796875 -14.734375 C 25.796875 -16.867188 25.382812 -18.675781 24.5625 -20.15625 C 23.75 -21.632812 22.664062 -22.75 21.3125 -23.5 C 19.957031 -24.25 18.5 -24.625 16.9375 -24.625 C 15.363281 -24.625 13.910156 -24.25 12.578125 -23.5 C 11.242188 -22.75 10.179688 -21.632812 9.390625 -20.15625 C 8.609375 -18.675781 8.21875 -16.867188 8.21875 -14.734375 C 8.21875 -11.566406 9.023438 -9.117188 10.640625 -7.390625 C 12.265625 -5.671875 14.304688 -4.8125 16.765625 -4.8125 Z M 16.765625 -4.8125 "/></g></g></g><g fill="#20ad96" fill-opacity="1"><g transform="translate(261.323805, 55.439681)"><g><path d="M 30.875 -25.734375 C 30.875 -23.742188 30.398438 -21.875 29.453125 -20.125 C 28.503906 -18.382812 27.023438 -16.976562 25.015625 -15.90625 C 23.003906 -14.84375 20.46875 -14.3125 17.40625 -14.3125 L 11.15625 -14.3125 L 11.15625 0 L 3.6875 0 L 3.6875 -37.28125 L 17.40625 -37.28125 C 20.289062 -37.28125 22.75 -36.78125 24.78125 -35.78125 C 26.8125 -34.78125 28.332031 -33.40625 29.34375 -31.65625 C 30.363281 -29.914062 30.875 -27.941406 30.875 -25.734375 Z M 17.09375 -20.34375 C 19.15625 -20.34375 20.679688 -20.8125 21.671875 -21.75 C 22.671875 -22.695312 23.171875 -24.023438 23.171875 -25.734375 C 23.171875 -29.367188 21.144531 -31.1875 17.09375 -31.1875 L 11.15625 -31.1875 L 11.15625 -20.34375 Z M 17.09375 -20.34375 "/></g></g></g><g fill="#20ad96" fill-opacity="1"><g transform="translate(293.792083, 55.439681)"><g><path d="M 22.90625 0 L 14.6875 -14.53125 L 11.15625 -14.53125 L 11.15625 0 L 3.6875 0 L 3.6875 -37.28125 L 17.671875 -37.28125 C 20.554688 -37.28125 23.015625 -36.769531 25.046875 -35.75 C 27.078125 -34.738281 28.597656 -33.367188 29.609375 -31.640625 C 30.628906 -29.910156 31.140625 -27.976562 31.140625 -25.84375 C 31.140625 -23.382812 30.425781 -21.164062 29 -19.1875 C 27.570312 -17.21875 25.453125 -15.859375 22.640625 -15.109375 L 31.5625 0 Z M 11.15625 -20.140625 L 17.40625 -20.140625 C 19.4375 -20.140625 20.953125 -20.628906 21.953125 -21.609375 C 22.953125 -22.585938 23.453125 -23.945312 23.453125 -25.6875 C 23.453125 -27.394531 22.953125 -28.71875 21.953125 -29.65625 C 20.953125 -30.601562 19.4375 -31.078125 17.40625 -31.078125 L 11.15625 -31.078125 Z M 11.15625 -20.140625 "/></g></g></g><g fill="#20ad96" fill-opacity="1"><g transform="translate(328.022609, 55.439681)"><g><path d="M 20.984375 0.375 C 17.492188 0.375 14.289062 -0.441406 11.375 -2.078125 C 8.457031 -3.722656 6.144531 -5.992188 4.4375 -8.890625 C 2.726562 -11.796875 1.875 -15.082031 1.875 -18.75 C 1.875 -22.375 2.726562 -25.632812 4.4375 -28.53125 C 6.144531 -31.4375 8.457031 -33.707031 11.375 -35.34375 C 14.289062 -36.988281 17.492188 -37.8125 20.984375 -37.8125 C 24.515625 -37.8125 27.726562 -36.988281 30.625 -35.34375 C 33.53125 -33.707031 35.828125 -31.4375 37.515625 -28.53125 C 39.203125 -25.632812 40.046875 -22.375 40.046875 -18.75 C 40.046875 -15.082031 39.203125 -11.796875 37.515625 -8.890625 C 35.828125 -5.992188 33.519531 -3.722656 30.59375 -2.078125 C 27.675781 -0.441406 24.472656 0.375 20.984375 0.375 Z M 20.984375 -6.296875 C 23.234375 -6.296875 25.210938 -6.800781 26.921875 -7.8125 C 28.628906 -8.832031 29.960938 -10.285156 30.921875 -12.171875 C 31.878906 -14.054688 32.359375 -16.25 32.359375 -18.75 C 32.359375 -21.238281 31.878906 -23.414062 30.921875 -25.28125 C 29.960938 -27.15625 28.628906 -28.585938 26.921875 -29.578125 C 25.210938 -30.578125 23.234375 -31.078125 20.984375 -31.078125 C 18.742188 -31.078125 16.757812 -30.578125 15.03125 -29.578125 C 13.300781 -28.585938 11.957031 -27.15625 11 -25.28125 C 10.039062 -23.414062 9.5625 -21.238281 9.5625 -18.75 C 9.5625 -16.25 10.039062 -14.054688 11 -12.171875 C 11.957031 -10.285156 13.300781 -8.832031 15.03125 -7.8125 C 16.757812 -6.800781 18.742188 -6.296875 20.984375 -6.296875 Z M 20.984375 -6.296875 "/></g></g></g></svg>